# xmcd
#
# Track frame offsets:
#	150
#	15025
#	31360
#	47600
#	60925
#	75645
#	93425
#	108520
#	121050
#	137695
#	154305
#	170375
#	180930
#	197305
#
# Disc length: 2835 seconds
#
# Revision: 1
# Processed by: cddbd v1.5.1PL0 Copyright (c) Steve Scherf et al.
# Submitted via: audiograbber 1.83.01
#
DISCID=980b110e
DTITLE=Various Artist - Beach Boogie Train 4
DYEAR=1900
DGENRE=Beach Music
TTITLE0=Eugene "Hideaway" Bridges - Movin' And A Groovin'
TTITLE1=Johnny Nicholas and The Texas All Stars - Rockin' My Blues To Sleep
TTITLE2=Bryan Lee - Beautician Blues
TTITLE3=Mark Roberts - Dixie Moon
TTITLE4=Gary Brown - She's Got The Look
TTITLE5=Michelle Becker - Make Love To Me
TTITLE6=Don Wise - You Don't Have To Be Lonely
TTITLE7=Billy Swan - Come Rain Or Come Shine
TTITLE8=Batson and Chase - One Good Heart
TTITLE9=Lisa Molina - Hooked On You
TTITLE10=Keena West - All Of Me
TTITLE11=Paul Craver - This Time We're Going To Make It All The Way
TTITLE12=Michelle Becker - Follow The Coastline
TTITLE13=Jean Esposito - Then You Can Tell Me Goodbye
EXTD=
EXTT0=
EXTT1=
EXTT2=
EXTT3=
EXTT4=
EXTT5=
EXTT6=
EXTT7=
EXTT8=
EXTT9=
EXTT10=
EXTT11=
EXTT12=
EXTT13=
PLAYORDER=
